<svg width="437.90252685546875px" height="121.49006958007813px" xmlns="http://www.w3.org/2000/svg" viewBox="31.048736572265625 14.254965209960936 437.90252685546875 121.49006958007813" style="background: rgba(0, 0, 0, 0);" preserveAspectRatio="xMidYMid"><defs><linearGradient id="editing-sticker-gradient" x1="0.5" y1="0.2" x2="0.5" y2="0.8"><stop offset="0" stop-color="#8fae5d"></stop><stop offset="1" stop-color="#9cf0ff"></stop></linearGradient><filter id="editing-sticker" x="-100%" y="-100%" width="300%" height="300%"><feMorphology operator="erode" radius="1" in="SourceAlpha" result="alpha-erode"></feMorphology><feConvolveMatrix order="3,3" divisor="1" kernelMatrix="0 1 0 1 1 1 0 1 0" in="alpha-erode" result="alpha-round"></feConvolveMatrix><feMorphology operator="dilate" radius="3.5" in="alpha-round" result="dilate-shadow"></feMorphology><feGaussianBlur in="dilate-shadow" stdDeviation="1.5" result="shadow"></feGaussianBlur><feFlood flood-color="#fff" result="flood-sticker"></feFlood><feComposite operator="in" in="flood-sticker" in2="alpha-round" result="comp-sticker"></feComposite><feMorphology operator="dilate" radius="3" in="comp-sticker" result="morph-sticker"></feMorphology><feConvolveMatrix order="3,3" divisor="1" kernelMatrix="0 1 0 1 1 1 0 1 0" in="morph-sticker" result="sticker"></feConvolveMatrix><feMerge><feMergeNode in="shadow"></feMergeNode><feMergeNode in="sticker"></feMergeNode><feMergeNode in="SourceGraphic"></feMergeNode></feMerge></filter></defs><g filter="url(#editing-sticker)"><g transform="translate(96.52500608563423, 97.46500015258789)"><path d="M0.45-0.32L0.45-0.32L8.51-42.24L8.51-42.24Q16.06-42.88 20.93-42.88L20.93-42.88L20.93-42.88Q25.79-42.88 28.93-42.46L28.93-42.46L28.93-42.46Q32.06-42.05 34.18-40.96L34.18-40.96L34.18-40.96Q38.40-38.91 38.40-33.28L38.40-33.28L38.40-33.28Q38.40-30.02 35.58-27.26L35.58-27.26L35.58-27.26Q32.96-24.77 30.08-24.19L30.08-24.19L30.08-24.19Q33.15-23.68 35.33-21.38L35.33-21.38L35.33-21.38Q37.63-18.94 37.63-15.17L37.63-15.17L37.63-15.17Q37.63-7.87 32.19-3.62L32.19-3.62L32.19-3.62Q26.75 0.64 16.06 0.64L16.06 0.64L16.06 0.64Q8.70 0.64 0.45-0.32ZM17.86-20.61L14.66-4.03L14.66-4.03Q15.23-3.97 15.36-3.97L15.36-3.97L15.94-3.97L15.94-3.97Q21.18-3.97 23.42-7.42L23.42-7.42L23.42-7.42Q25.09-10.11 25.09-15.04L25.09-15.04L25.09-15.04Q25.09-17.66 23.39-19.07L23.39-19.07L23.39-19.07Q21.70-20.48 17.86-20.61L17.86-20.61ZM27.58-33.22L27.58-33.22L27.58-33.22Q27.58-38.53 22.46-38.53L22.46-38.53L21.89-38.53L21.89-38.53Q21.63-38.53 21.25-38.46L21.25-38.46L18.69-24.96L19.33-24.96L19.33-24.96Q27.58-25.15 27.58-33.22ZM54.98 0L41.28 0L49.09-42.05L49.09-42.05Q55.42-42.75 64.67-42.75L64.67-42.75L64.67-42.75Q73.92-42.75 78.21-40.06L78.21-40.06L78.21-40.06Q82.50-37.38 82.50-31.97L82.50-31.97L82.50-31.97Q82.50-26.56 79.71-23.17L79.71-23.17L79.71-23.17Q76.93-19.78 72.13-18.69L72.13-18.69L72.13-18.69Q73.22-13.38 75.71-9.09L75.71-9.09L75.71-9.09Q78.02-5.06 80.70-3.78L80.70-3.78L80.70-3.78Q79.74-1.09 77.79 0.10L77.79 0.10L77.79 0.10Q75.84 1.28 73.06 1.28L73.06 1.28L73.06 1.28Q70.27 1.28 68.10-0.35L68.10-0.35L68.10-0.35Q65.92-1.98 64.19-4.99L64.19-4.99L64.19-4.99Q60.54-11.52 60.16-21.82L60.16-21.82L60.61-21.82L60.61-21.82Q65.34-21.95 67.71-24.42L67.71-24.42L67.71-24.42Q70.08-26.88 70.08-32.06L70.08-32.06L70.08-32.06Q70.08-38.53 64.64-38.78L64.64-38.78L63.23-38.78L63.23-38.78Q62.66-38.78 62.34-38.72L62.34-38.72L54.98 0ZM113.54 1.28L113.54 1.28L113.54 1.28Q105.34 1.28 104.58-10.37L104.58-10.37L93.57-10.37L93.57-10.37Q92.29-7.42 91.39-4.86L91.39-4.86L89.73 0L80.77 0L100.93-42.24L114.69-42.24L117.38-11.14L117.38-11.14Q118.02-4.42 120.58-2.43L120.58-2.43L120.58-2.43Q118.72 1.28 113.54 1.28ZM99.07-23.17L95.55-15.04L104.38-15.04L103.62-31.49L103.62-33.22L99.07-23.17ZM129.41-31.17L129.41-31.17L129.41-31.17Q127.23-32.83 127.23-36.38L127.23-36.38L127.23-36.38Q127.23-39.94 129.57-41.79L129.57-41.79L129.57-41.79Q131.90-43.65 135.94-43.65L135.94-43.65L135.94-43.65Q138.50-43.65 144.58-42.75L144.58-42.75L148.93-42.11L148.93-42.11Q151.10-41.86 153.38-41.86L153.38-41.86L153.38-41.86Q155.65-41.86 157.18-42.82L157.18-42.82L157.18-42.82Q159.49-40.77 159.49-37.82L159.49-37.82L159.49-37.82Q159.49-34.88 156.86-32.77L156.86-32.77L156.86-32.77Q154.18-30.53 150.72-30.53L150.72-30.53L150.72-30.53Q149.06-30.53 146.37-30.98L146.37-30.98L146.37-30.98Q143.23-21.12 143.23-14.27L143.23-14.27L143.23-14.27Q143.23-7.42 146.69-3.84L146.69-3.84L146.69-3.84Q145.09-0.96 142.72 0.16L142.72 0.16L142.72 0.16Q140.35 1.28 136.80 1.28L136.80 1.28L136.80 1.28Q133.25 1.28 131.04-0.67L131.04-0.67L131.04-0.67Q128.83-2.62 128.83-6.66L128.83-6.66L128.83-6.66Q128.83-11.33 131.39-19.01L131.39-19.01L131.39-19.01Q133.95-26.62 137.79-32.45L137.79-32.45L137.79-32.45Q135.94-32.64 134.02-32.64L134.02-32.64L134.02-32.64Q130.05-32.64 129.41-31.17ZM170.69 0L156.74 0L164.86-42.24L178.94-42.24L170.69 0ZM208.45 1.28L208.45 1.28L208.45 1.28Q200.26 1.28 199.49-10.37L199.49-10.37L188.48-10.37L188.48-10.37Q187.20-7.42 186.30-4.86L186.30-4.86L184.64 0L175.68 0L195.84-42.24L209.60-42.24L212.29-11.14L212.29-11.14Q212.93-4.42 215.49-2.43L215.49-2.43L215.49-2.43Q213.63 1.28 208.45 1.28ZM193.98-23.17L190.46-15.04L199.30-15.04L198.53-31.49L198.53-33.22L193.98-23.17ZM225.79 0L218.75 0L226.43-42.24L240.19-42.24L250.18-13.18L255.49-42.24L262.59-42.18L254.78 0L240.13 0L230.91-27.97L225.79 0ZM265.15-15.62L265.15-15.62L265.15-15.62Q265.15-27.71 271.42-35.33L271.42-35.33L271.42-35.33Q278.08-43.58 289.66-43.58L289.66-43.58L289.66-43.58Q298.05-43.58 302.27-39.52L302.27-39.52L302.27-39.52Q306.50-35.46 306.50-26.88L306.50-26.88L306.50-26.88Q306.50-13.82 299.84-6.21L299.84-6.21L299.84-6.21Q293.25 1.28 282.18 1.28L282.18 1.28L282.18 1.28Q273.54 1.28 269.34-3.04L269.34-3.04L269.34-3.04Q265.15-7.36 265.15-15.62ZM281.98-28.86L281.98-28.86L281.98-28.86Q279.10-17.34 279.10-8.26L279.10-8.26L279.10-8.26Q279.10-6.08 279.84-4.67L279.84-4.67L279.84-4.67Q280.58-3.26 282.53-3.26L282.53-3.26L282.53-3.26Q284.48-3.26 285.70-4.19L285.70-4.19L285.70-4.19Q286.91-5.12 287.87-7.23L287.87-7.23L287.87-7.23Q289.41-10.69 290.85-18.02L290.85-18.02L290.85-18.02Q292.29-25.34 292.42-28.38L292.42-28.38L292.42-28.38Q292.54-31.42 292.54-33.73L292.54-33.73L292.54-33.73Q292.54-36.03 291.84-37.50L291.84-37.50L291.84-37.50Q291.14-38.98 289.25-38.98L289.25-38.98L289.25-38.98Q287.36-38.98 286.08-37.82L286.08-37.82L286.08-37.82Q283.71-35.65 281.98-28.86Z" fill="url(#editing-sticker-gradient)" stroke="#000000" stroke-width="2.5"></path></g></g><style>text {
  font-size: 64px;
  font-family: Arial Black;
  dominant-baseline: central;
  text-anchor: middle;
}</style></svg>